<svg xmlns="http://www.w3.org/2000/svg">
  <symbol id="logo-mobile" viewBox="0 0 34 38" fill="none">
    <g clip-path="url(#clip0_153_267)">
      <path
        d="M6.07 20.72v-2.26a143.265 143.265 0 0 1 20.17-1.33c0 .6 0 1.21-.06 1.82a25.518 25.518 0 0 1 6-1.82A16.67 16.67 0 0 0 .19 20.39l5.88.33ZM27.24 24.23c-1.16 1.28-1.39 1.2-1.39 3.45v9.18A16.64 16.64 0 0 0 33.32 23a17.302 17.302 0 0 0-.32-3.1 33.109 33.109 0 0 0-5.76 4.33ZM6.36 25.72s-3.79-1.44-5.19-1.83A8.541 8.541 0 0 0 0 23.61a16.65 16.65 0 0 0 8.68 14L6.36 25.72Z"
        fill="#FDC305"
      />
      <path
        d="M26.29 17.12A89.799 89.799 0 0 0 24.89.65S24.75-.64 24 .41a14.22 14.22 0 0 0-1.2 3.94 70.34 70.34 0 0 0-12.77.34C9.24 2 7.85.75 7.18 1c-.67.25-.72 3.31-.72 3.31l-.33 14.1a143.211 143.211 0 0 1 20.16-1.29Z"
        fill="#F06351"
      />
      <path
        d="M12.41 14c0-.09 1 .68 1.41.92.41.24.61.42.61.59 0 .17-.27.34-.63.34s-.91-.12-1-.27h1.23A8.34 8.34 0 0 1 12.41 14ZM19.89 14.11l-1.09 1.33c0 .06-.17.35.18.3a7.351 7.351 0 0 0 1.22-.29c.11 0 .07-.19-.11-.17-.18.02-.69.05-1 .11l.84-1.26s.07-.13-.04-.02ZM16.75 20.2a2.3 2.3 0 0 0 1.09-1c.28-.65 0-.91-.44-1a2.43 2.43 0 0 0-1.74.34c-.39.36-.34.72-.05 1a5.34 5.34 0 0 0 1.14.66Z"
        fill="#000"
      />
      <path
        d="M16.35 21.45a1.92 1.92 0 0 1-.46.6 1.73 1.73 0 0 1-1 .38 2.15 2.15 0 0 1-1.47-.43 2.3 2.3 0 0 1-.53-.44c-.1-.11-.223-.2-.36-.26 0 0 .75 4.1 2.57 4.75 1.82.65 2.14-.75 2.2-1.13a5.61 5.61 0 0 0-.82-3.23c-.02-.31-.03-.11-.13-.24Z"
        fill="#F06351"
      />
      <path
        d="M14.71 22.59a3.44 3.44 0 0 1-2.361-1.466.14.14 0 0 1 .031-.154.14.14 0 0 1 .2 0 3.26 3.26 0 0 0 2.11 1.3 2.09 2.09 0 0 0 1.63-1l.14-.19.1.21s.37.76 1 .8c.63.04 1.05-.41 1.61-1.28a.14.14 0 0 1 .2 0 .15.15 0 0 1 .05.2c-.64 1-1.27 1.44-1.88 1.4a1.549 1.549 0 0 1-1.12-.76 2.26 2.26 0 0 1-1.71.94Z"
        fill="#000"
      />
      <path
        d="M26.24 18.92a58.634 58.634 0 0 0-5.07 5.19A31.633 31.633 0 0 1 15.88 29c-.22-.53-1.62-1.51-1.62-1.51s-3.13-2.14-5.18-3.82a34.139 34.139 0 0 1-3.13-3l-2-.11a22.57 22.57 0 0 0 12 8.8c.86-.14 3.27-1.86 5.07-3.26a58.13 58.13 0 0 0 5.94-5.89 6.15 6.15 0 0 0 1.14-2c-1.1.39-1.86.71-1.86.71Z"
        fill="#F06351"
      />
    </g>
    <defs>
      <clipPath id="clip0_153_267">
        <path fill="#fff" d="M0 0h33.32v37.61H0z" />
      </clipPath>
    </defs>
  </symbol>
  <symbol id="arrow-icon" viewBox="0 0 24 12" fill="none">
    <path stroke="#000" stroke-width="2" d="M0 6h18" />
    <path d="m24 6-6.75 5.2V.8L24 6Z" fill="#000" />
  </symbol>
  <symbol id="leaf-icon" viewBox="0 0 31 32" fill="none">
    <g clip-path="url(#clip0_130_911)">
      <path
        d="M28.34 2.77a.95.95 0 0 0-.9-.77h-.01c-4.94.03-16.95.92-21.8 8.38C3.12 14.26 2.9 19.29 5 25.34l.07.13a25.93 25.93 0 0 0-1.04 3.32c-.11.54.21 1.07.72 1.19l.2.02c.43 0 .81-.32.9-.79.03-.1 2.42-10.37 10.86-16.38.43-.3.55-.93.26-1.38a.9.9 0 0 0-1.3-.28c-4.79 3.4-7.74 8-9.47 11.65-1.24-4.57-.92-8.37.99-11.3 3.74-5.76 12.62-7.15 17.98-7.45C24 5.87 22.75 9.17 22.75 15c0 3.12-.83 5.52-2.47 7.14-2.62 2.6-6.88 2.83-10 2.58-.51-.04-.96.38-1 .93-.04.55.35 1.03.86 1.07.63.05 1.3.08 1.98.08 3.18 0 6.87-.66 9.43-3.2 2.04-2 3.07-4.9 3.07-8.6 0-9.1 3.22-11.1 3.23-11.1.4-.21.6-.68.5-1.13Z"
        fill="#fff"
      />
    </g>
    <defs>
      <clipPath id="clip0_130_911">
        <path fill="#fff" transform="translate(.5)" d="M0 0h30v32H0z" />
      </clipPath>
    </defs>
  </symbol>
  <symbol id="tub-icon" viewBox="0 0 30 31" fill="none">
    <g clip-path="url(#clip0_130_917)" fill="#fff">
      <path
        d="M21.276 18.473c-1.706 0-3.088 1.479-3.088 3.301 0 1.824 1.383 3.302 3.088 3.302 1.706 0 3.088-1.478 3.088-3.302 0-1.823-1.383-3.3-3.088-3.3Zm0 5.013c-.884 0-1.6-.766-1.6-1.71 0-.947.716-1.713 1.6-1.713.884 0 1.602.766 1.602 1.712 0 .945-.718 1.711-1.602 1.711ZM12.107-.01c-1.76 0-3.187 1.525-3.187 3.407 0 1.882 1.426 3.407 3.187 3.407 1.76 0 3.187-1.524 3.187-3.407S13.867-.01 12.107-.01Zm0 5.476c-1.07 0-1.936-.926-1.936-2.07 0-1.142.866-2.069 1.935-2.069 1.07 0 1.936.927 1.936 2.07 0 1.143-.866 2.069-1.936 2.069ZM8.727 17.61c-1.294 0-2.341 1.12-2.341 2.503s1.047 2.503 2.34 2.503c1.295 0 2.342-1.12 2.342-2.503 0-1.382-1.047-2.503-2.341-2.503ZM8.5 19.5c-.459 0 1.158 1.104 1.158.613 0-.49-1.617.387-1.158.387.459 0 1.057-.877 1.057-.388 0 .49-.598-.612-1.057-.612ZM19 9.763s3.04-.839 6.178 1.494c.907.76 1.765 1.336 1.152 2.122-.343.34-.637.657-1.716-.524-1.054-.76-2.72-1.898-5.614-1.442-1.128.237-1.961.551-3.556 2.15-1.593 1.598-3.972 2.725-6.497 2.489-2.525-.236-3.849-1.258-5.246-2.542-.294-.42-.294-.865-.123-1.127.171-.262.833-.524 1.201-.132.368.394 2.109 1.966 3.825 2.07 1.716.105 3.433.21 5.737-1.965 2.306-2.174 3.458-2.331 4.66-2.593Z"
      />
      <mask id="path-5-inside-1_130_917">
        <path
          d="M29.146 26.816V8.157c0-.578-.374-.65-.524-.655h-.506c-.493 0-.536.557-.538.739V8.3c.002 3.609.01 18.254-.002 18.54a2.681 2.681 0 0 1-.82 1.887c-.809.695-1.618.603-1.618.603s-20.177 0-20.655-.026c-.38-.066-1.042-.21-1.606-1.01-.564-.798-.453-1.847-.453-1.847V8.315c0-.839-.675-.812-.675-.812h-.307c-.536 0-.585.588-.588.776v18.537c0 1.337.453 2.398 1.548 3.337 1.094.939 2.375.856 2.375.856s19.723 0 20.581-.002c.859-.003 1.986-.417 2.916-1.556.93-1.138.872-2.635.872-2.635Z"
        />
      </mask>
      <path
        d="M29.146 26.816V8.157c0-.578-.374-.65-.524-.655h-.506c-.493 0-.536.557-.538.739V8.3c.002 3.609.01 18.254-.002 18.54a2.681 2.681 0 0 1-.82 1.887c-.809.695-1.618.603-1.618.603s-20.177 0-20.655-.026c-.38-.066-1.042-.21-1.606-1.01-.564-.798-.453-1.847-.453-1.847V8.315c0-.839-.675-.812-.675-.812h-.307c-.536 0-.585.588-.588.776v18.537c0 1.337.453 2.398 1.548 3.337 1.094.939 2.375.856 2.375.856s19.723 0 20.581-.002c.859-.003 1.986-.417 2.916-1.556.93-1.138.872-2.635.872-2.635Z"
      />
      <path
        d="M29.146 26.816h-20v.387l.015.387 19.985-.774Zm-.524-19.314.71-19.987-.355-.013h-.355v20Zm-1.044.739-20-.15v.15h20Zm0 .06h-20v.008l20-.008Zm-.002 18.54-19.985-.758v.013l19.986.745Zm-.82 1.887 13.039 15.165.431-.37.41-.396-13.88-14.399Zm-1.618.603 2.26-19.872-1.127-.128h-1.133v20Zm-20.655-.026-3.395 19.71 1.134.195 1.148.064 1.113-19.97Zm-1.606-1.01-16.344 11.528.004.006 16.34-11.533Zm-.453-1.847 19.89 2.098.11-1.046v-1.052h-20ZM1.749 7.503v20h.388l.388-.015-.776-19.985Zm-.895.776-19.998-.289-.002.145v.144h20Zm1.548 21.874L-10.624 45.33 2.403 30.153Zm2.375.856v-20h-.643l-.64.041 1.283 19.96Zm23.497-1.558 15.49 12.654.005-.008-15.495-12.646Zm20.872-2.635V8.157h-40v18.659h40Zm0-18.659c0-4.97-1.859-11.419-7.618-16.084-4.89-3.96-10.03-4.481-12.196-4.558l-1.42 39.974a19.462 19.462 0 0 1-11.56-4.332c-5.535-4.483-7.206-10.608-7.206-15h40ZM28.622-12.498h-.506v40h.506v-40Zm-.506 0a20.47 20.47 0 0 0-12.283 4.083A20.526 20.526 0 0 0 9.414-.38 21.134 21.134 0 0 0 7.579 8.09l39.999.299c-.006.733-.014 3.914-1.667 7.598a19.474 19.474 0 0 1-6.096 7.61 19.53 19.53 0 0 1-11.699 3.904v-40ZM7.578 8.241V8.292h40V8.24h-40Zm0 .05V8.302h40V8.291h-40Zm0 .018.004 10.511a8367.03 8367.03 0 0 1-.002 7.252c-.002.788-.006.45.01.011L47.563 27.6c.02-.51.018-1.37.018-1.45l.002-1.808v-5.528c0-4.15-.003-8.719-.004-10.52l-40 .016Zm.012 17.787c.05-1.35.384-7.042 5.285-11.767l27.761 28.798c6.396-6.166 6.852-13.536 6.927-15.54L7.59 26.096Zm6.126-12.533a17.513 17.513 0 0 1 7.807-3.843 17.962 17.962 0 0 1 4.628-.362 19.227 19.227 0 0 1 1.172.093l.037.004.019.002c.01.001.019.002-2.241 19.874-2.26 19.872-2.25 19.873-2.241 19.874l.018.003c.013 0 .025.002.038.004a14.8 14.8 0 0 0 .553.053 20.798 20.798 0 0 0 2.275.064 22.044 22.044 0 0 0 3.983-.468 22.487 22.487 0 0 0 10.03-4.968l-26.078-30.33Zm11.422 15.768v-20h-.866a17598.02 17598.02 0 0 1-16.322-.01l-2.357-.007c-1.071-.005-.613-.013.002.022L3.37 49.274c.97.054 7.17.051 11.606.054l6.997.003h3.164v-20ZM7.877 9.595c.432.074 2.526.427 4.938 1.653a17.618 17.618 0 0 1 6.401 5.514L-13.463 39.83c4.995 7.076 11.877 8.725 14.551 9.186l6.789-39.42Zm11.344 7.173c2.348 3.33 2.908 6.51 3.08 7.955a16.586 16.586 0 0 1 .049 3.439 18.522 18.522 0 0 1-.027.29l-.005.047-.002.024-.002.012c0 .005 0 .011-19.89-2.087-19.89-2.098-19.89-2.092-19.891-2.086l-.002.012a19.73 19.73 0 0 0-.036.385 21.677 21.677 0 0 0-.078 1.584c-.011.81.016 1.863.16 3.08.257 2.169 1.043 6.27 3.956 10.4L19.22 16.768Zm3.203 9.68V8.315h-40v18.133h40Zm0-18.133c0-6.89-3.412-14.004-10.265-17.999a20.69 20.69 0 0 0-11.136-2.8H.998c-.012.001-.024.002.751 19.987.776 19.985.763 19.985.751 19.985l-.024.001-.05.002a28.574 28.574 0 0 1-.3.008 19.374 19.374 0 0 1-10.112-2.626 19.387 19.387 0 0 1-7.239-7.434 19.028 19.028 0 0 1-2.351-9.124h40ZM1.748-12.497h-.307v40h.307v-40Zm-.307 0c-4.037 0-8.32 1.191-12.061 3.905a20.562 20.562 0 0 0-6.553 7.946 21.166 21.166 0 0 0-1.972 8.636l39.996.578c-.011.758-.045 3.996-1.784 7.718a19.438 19.438 0 0 1-6.2 7.5 19.477 19.477 0 0 1-11.426 3.717v-40ZM-19.146 8.279V26.816h40V8.279h-40Zm0 18.537c0 7.063 2.92 13.705 8.522 18.514l26.052-30.354c1.294 1.111 2.854 2.871 3.993 5.373a15.716 15.716 0 0 1 1.433 6.467h-40Zm8.523 18.514A23.586 23.586 0 0 0-.143 50.5a23.616 23.616 0 0 0 5.087.51 21.335 21.335 0 0 0 .991-.034l.063-.004.03-.002h.016c.008-.001.016-.002-1.267-19.96C3.494 11.05 3.5 11.05 3.509 11.05l.015-.002.03-.001a429.613 429.613 0 0 1 .185-.01 19.735 19.735 0 0 1 .755-.025c.342-.004.702.002 1.077.021.737.037 1.607.13 2.571.334 1.88.398 4.642 1.34 7.285 3.609l-26.05 30.354Zm15.4-14.32v20H7.872l6.875-.001c5.007 0 10.202 0 10.668-.002l-.113-40H24.22l-2.443.001-7.033.001H4.778v20Zm20.638 19.997c7.104-.02 13.8-3.336 18.348-8.902L12.786 16.799c2.687-3.29 7.129-5.777 12.516-5.792l.113 40Zm18.354-8.91c3.245-3.977 4.434-8.096 4.913-10.529a24.742 24.742 0 0 0 .464-4.58 21.801 21.801 0 0 0-.015-.934c0-.006 0-.013-19.985.762-19.985.774-19.986.767-19.986.761v-.013l-.001-.025a18.379 18.379 0 0 1 .014-1.619c.033-.576.105-1.28.262-2.075.275-1.4 1.028-4.201 3.344-7.039l30.99 25.291Z"
        mask="url(#path-5-inside-1_130_917)"
      />
    </g>
    <defs>
      <clipPath id="clip0_130_917">
        <path fill="#fff" transform="translate(.5)" d="M0 0h29v31H0z" />
      </clipPath>
    </defs>
  </symbol>
  <symbol id="eat-icon" viewBox="0 0 26 30" fill="none">
    <path
      fill-rule="evenodd"
      clip-rule="evenodd"
      d="M19.117.076a1 1 0 0 1 1.09.217c.909.908 2.097 2.878 3.059 5.918C24.237 9.28 25 13.508 25 19a1 1 0 0 1-1 1h-3.5v9a1 1 0 1 1-2 0V1a1 1 0 0 1 .617-.924ZM20.5 18h2.491c-.086-4.816-.786-8.512-1.632-11.186-.278-.88-.57-1.643-.859-2.295V18ZM6.5 0a1 1 0 0 1 1 1v28a1 1 0 1 1-2 0V1a1 1 0 0 1 1-1Z"
      fill="#fff"
    />
    <path
      fill-rule="evenodd"
      clip-rule="evenodd"
      d="M2 0a1 1 0 0 1 1 1v5.5c0 .557.192 1.315.7 1.917.48.566 1.314 1.083 2.8 1.083a1 1 0 1 1 0 2c-2.015 0-3.43-.733-4.326-1.792A5.068 5.068 0 0 1 1 6.5V1a1 1 0 0 1 1-1Z"
      fill="#fff"
    />
    <path
      fill-rule="evenodd"
      clip-rule="evenodd"
      d="M11 0a1 1 0 0 0-1 1v5.5a3.07 3.07 0 0 1-.7 1.917C8.82 8.983 7.984 9.5 6.5 9.5a1 1 0 0 0 0 2c2.014 0 3.43-.733 4.326-1.792A5.068 5.068 0 0 0 12 6.5V1a1 1 0 0 0-1-1Z"
      fill="#fff"
    />
  </symbol>
  <symbol id="alarm-icon" viewBox="0 0 33 33" fill="none">
    <circle cx="21.7" cy="11.33" fill="#fff" r="1.09" />
    <circle cx="10.83" cy="11.33" fill="#fff" r="1.09" />
    <circle cx="10.83" cy="24.35" fill="#fff" r="1.09" />
    <circle cx="16.27" cy="26.52" fill="#fff" r="1.09" />
    <circle cx="7.57" cy="17.77" fill="#fff" r="1.09" />
    <circle cx="24.97" cy="17.77" fill="#fff" r="1.09" />
    <circle cx="21.7" cy="24.35" fill="#fff" r="1.09" />
    <mask id="path-8-inside-1_130_940" fill="#fff">
      <path
        fill-rule="evenodd"
        clip-rule="evenodd"
        d="M21.42 29.06c.41-.2.9-.13 1.22.2l1.82 1.87a.68.68 0 0 0 .98-.95l-1.36-1.4c-.42-.43-.36-1.14.1-1.55a12.75 12.75 0 0 0 4.32-9.62C28.5 10.65 23.02 5 16.27 5 9.5 5 4.04 10.65 4.04 17.61c0 3.82 1.64 7.24 4.23 9.55.45.4.51 1.11.1 1.55l-1.44 1.47a.68.68 0 1 0 .97.95l1.88-1.93c.32-.33.82-.4 1.23-.2a11.88 11.88 0 0 0 10.41.06Zm-5.15-.23c6 0 10.87-5.02 10.87-11.22 0-6.19-4.87-11.2-10.87-11.2-6 0-10.88 5.01-10.88 11.2 0 6.2 4.87 11.22 10.88 11.22ZM15.5 17.3V9.94a.78.78 0 1 1 1.56 0v8.18a.8.8 0 0 1-.8.8.76.76 0 0 1-.76-.75V17.3Z"
      />
    </mask>
    <path
      fill-rule="evenodd"
      clip-rule="evenodd"
      d="M21.42 29.06c.41-.2.9-.13 1.22.2l1.82 1.87a.68.68 0 0 0 .98-.95l-1.36-1.4c-.42-.43-.36-1.14.1-1.55a12.75 12.75 0 0 0 4.32-9.62C28.5 10.65 23.02 5 16.27 5 9.5 5 4.04 10.65 4.04 17.61c0 3.82 1.64 7.24 4.23 9.55.45.4.51 1.11.1 1.55l-1.44 1.47a.68.68 0 1 0 .97.95l1.88-1.93c.32-.33.82-.4 1.23-.2a11.88 11.88 0 0 0 10.41.06Zm-5.15-.23c6 0 10.87-5.02 10.87-11.22 0-6.19-4.87-11.2-10.87-11.2-6 0-10.88 5.01-10.88 11.2 0 6.2 4.87 11.22 10.88 11.22ZM15.5 17.3V9.94a.78.78 0 1 1 1.56 0v8.18a.8.8 0 0 1-.8.8.76.76 0 0 1-.76-.75V17.3Z"
      fill="#fff"
    />
    <path
      d="m9.78 29.2 2.87 2.79-2.87-2.8Zm1.23-.2 1.77-3.58L11 29Zm-3.1 2.13-2.87-2.8 2.86 2.8Zm-.98-.95 2.86 2.79-2.86-2.8Zm17.15-1.4-2.86 2.8 2.86-2.8Zm.1-1.55-2.63-3 2.63 3Zm-15.9-.07L5.6 30.15l2.66-2.99Zm.08 1.55L5.5 25.9l2.86 2.8Zm17.08 1.47 2.87-2.8-2.87 2.8Zm-.98.95 2.87-2.8-2.87 2.8Zm-1.82-1.88-2.87 2.8 2.87-2.8Zm-1.22-.2-1.73-3.6 1.73 3.6Zm-1.65 3 1.83 1.87 5.73-5.58-1.83-1.88-5.73 5.58Zm8.54-4.66-1.36-1.4-5.73 5.59 1.36 1.39 5.73-5.58Zm-1.5 2.85a16.75 16.75 0 0 0 5.69-12.63h-8a8.75 8.75 0 0 1-2.95 6.61l5.27 6.02Zm5.69-12.63C32.5 8.56 25.35 1 16.27 1v8c4.43 0 8.23 3.74 8.23 8.61h8ZM16.27 1C7.19 1 .04 8.56.04 17.61h8c0-4.87 3.8-8.61 8.23-8.61V1ZM.04 17.61c0 4.98 2.14 9.48 5.57 12.54l5.32-5.97a8.75 8.75 0 0 1-2.9-6.57h-8Zm5.46 8.3L4.06 27.4l5.73 5.58 1.44-1.47L5.5 25.9Zm5.27 8.01 1.88-1.93-5.73-5.58-1.88 1.93 5.73 5.58ZM9.25 32.6a15.88 15.88 0 0 0 7.02 1.63v-8a7.88 7.88 0 0 1-3.5-.81L9.26 32.6Zm7.02 1.63c2.45 0 4.79-.56 6.88-1.57l-3.46-7.2c-1.04.5-2.2.77-3.42.77v8Zm0-1.4c8.33 0 14.87-6.93 14.87-15.22h-8c0 4.1-3.2 7.22-6.87 7.22v8ZM31.14 17.6c0-8.28-6.54-15.2-14.87-15.2v8c3.68 0 6.87 3.1 6.87 7.2h8ZM16.27 2.41C7.94 2.4 1.39 9.32 1.39 17.6h8c0-4.1 3.2-7.2 6.88-7.2v-8ZM1.39 17.6c0 8.29 6.55 15.22 14.88 15.22v-8c-3.68 0-6.88-3.11-6.88-7.22h-8Zm11.68-.31v.54h8v-.54h-8Zm0 .54v.28h8v-.28h-8Zm6.44.33v-.33h-8v.33h8Zm0-.33v-.54h-8v.54h8Zm0-.54v-3.8h-8v3.8h8Zm0-3.8V9.94h-8v3.56h8Zm-6.44-3.56v3.56h8V9.94h-8Zm0 3.56v3.8h8v-3.8h-8Zm3.22-8.34a4.78 4.78 0 0 0-4.78 4.78h8a3.22 3.22 0 0 1-3.22 3.22v-8Zm-3.22 12.96a3.2 3.2 0 0 1 3.2-3.2v8a4.8 4.8 0 0 0 4.8-4.8h-8ZM12.65 32c-1 1.02-2.4 1.1-3.4.6l3.53-7.17a5.06 5.06 0 0 0-5.86.99l5.73 5.58Zm-8.59 1.93a4.68 4.68 0 0 0 6.71 0l-5.73-5.58a3.32 3.32 0 0 1 4.75 0l-5.73 5.58Zm0-6.53a4.68 4.68 0 0 0 0 6.53l5.73-5.58a3.32 3.32 0 0 1 0 4.63l-5.73-5.58Zm22.89-1.4a2.93 2.93 0 0 1-.13 4.25l-5.27-6.02a5.08 5.08 0 0 0-.33 7.36l5.73-5.59ZM16.29 13.16a3.22 3.22 0 0 1-3.22-3.22h8a4.78 4.78 0 0 0-4.78-4.78v8ZM5.61 30.15a2.93 2.93 0 0 1-.11-4.24l5.73 5.59a5.07 5.07 0 0 0-.3-7.32l-5.32 5.97Zm22.7 3.77a4.68 4.68 0 0 0 0-6.53l-5.73 5.58a3.32 3.32 0 0 1 0-4.63l5.73 5.58Zm-6.71 0a4.68 4.68 0 0 0 6.7 0l-5.72-5.58a3.32 3.32 0 0 1 4.75 0l-5.73 5.58Zm-5.33-19a3.24 3.24 0 0 1 3.24 3.25h-8a4.76 4.76 0 0 0 4.76 4.76v-8Zm9.23 11.54a5.06 5.06 0 0 0-5.8-1l3.45 7.2c-1 .49-2.4.4-3.38-.62l5.73-5.58Z"
      fill="#fff"
      mask="url(#path-8-inside-1_130_940)"
    />
    <path fill="#fff" d="M15.5 6V2H17v4z" />
    <rect x="8.5" y="2" width="15.5" height="1.5" rx=".75" fill="#fff" />
  </symbol>
  <symbol id="footer-logo" viewBox="0 0 128 24" fill="none">
    <g clip-path="url(#clip0_135_3260)" fill="#111">
      <path
        d="M1.6 22.05A9.5 9.5 0 0 1 0 16.31V7.79a9.63 9.63 0 0 1 1.5-5.84C2.6.62 4.3 0 6.81 0c2.5 0 4.1.62 5.1 1.74a7.49 7.49 0 0 1 1.51 5.03v2.05h-4.9V6.46c.03-.7-.07-1.4-.3-2.05a1.46 1.46 0 0 0-.59-.63 1.41 1.41 0 0 0-.82-.19c-.7 0-1.2.2-1.4.72-.23.73-.33 1.49-.3 2.25v10.98c-.05.74.08 1.48.4 2.15.2.52.7.72 1.4.72s1.1-.2 1.3-.72c.23-.7.33-1.42.3-2.15v-2.46h4.91v2.05a7.98 7.98 0 0 1-1.5 5.13c-1 1.23-2.7 1.84-5.1 1.84-2.41-.1-4.22-.72-5.22-2.05ZM19.33.3h5.7l4.22 23.4h-4.61l-.8-4.93h-3.3l-.8 4.92h-4.72L19.33.31Zm4.1 15.4-1.2-9.14-1.2 9.13h2.4ZM32.75 4.2h-3.4V.3h11.91v3.8h-3.4v19.6h-5.1V4.2ZM50.38.3h8.81v2.47h-5.7v7.7h4.6v2.35h-4.6v8.62h5.7v2.35h-8.91V.31h.1ZM61.8.3H64l6.51 15.5V.3h2.6v23.4h-2l-6.6-16v16H61.8V.3ZM76.12.3h8.81v2.47h-5.7v7.7h4.6v2.35h-4.6v8.62h5.7v2.35h-8.81V.31ZM87.54.3h4.6a7.87 7.87 0 0 1 5.11 1.44c1.1.93 1.6 2.57 1.6 4.72 0 2.98-.9 4.82-2.8 5.44l3.2 11.69h-3.1l-3-10.97h-2.5v10.97h-3.21V.31h.1Zm4.4 10.06a4.3 4.3 0 0 0 2.9-.82c.6-.51.91-1.54.91-3.08a6.77 6.77 0 0 0-.3-2.25 2.58 2.58 0 0 0-1.1-1.24 4.47 4.47 0 0 0-2.2-.4h-1.4v7.69h1.2v.1ZM102.86 21.95a10.57 10.57 0 0 1-1.4-5.95V8.2c-.03-1.48.14-2.96.5-4.4a5.2 5.2 0 0 1 1.9-2.67c1.12-.68 2.41-1 3.7-.92 2.11 0 3.61.5 4.52 1.64a7.98 7.98 0 0 1 1.4 5.12v.82h-3v-.71c0-.86-.07-1.72-.2-2.57a2.06 2.06 0 0 0-.8-1.33 3.04 3.04 0 0 0-1.91-.51 2.96 2.96 0 0 0-2 .61 2.3 2.3 0 0 0-.8 1.64c-.14.92-.2 1.85-.2 2.77v8.72a9.53 9.53 0 0 0 .6 3.9c.4.82 1.2 1.13 2.4 1.13a2.37 2.37 0 0 0 2.4-1.23c.53-1.3.77-2.7.7-4.1v-1.65h-2.9V12.1h5.8v11.6h-2l-.3-2.67c-.26.89-.8 1.67-1.55 2.2-.74.55-1.64.81-2.55.77a4.9 4.9 0 0 1-4.3-2.05ZM119.99 15.49 115.08.4h3l3.51 11.28 3.4-11.28H128l-4.9 15.08v8.2h-3.01v-8.2h-.1Z"
      />
    </g>
    <defs>
      <clipPath id="clip0_135_3260">
        <path fill="#fff" d="M0 0h128v24H0z" />
      </clipPath>
    </defs>
  </symbol>
</svg>
